# 25 vertices, 40 faces
v -2.5 1 2
vn 0.409289 0.00366267 -0.912397
vt 0 0
v -1.2375 1.09583 0.604167
vn 0.711306 -0.0679347 0.699592
vt 0 0
v -2.5875 0.525 2.1
vn 0.719124 0.673416 -0.171381
vt 0 0
v -1.16979 0.564583 0.460417
vn 0.68889 0.181992 0.701648
vt 0 0
v -1.4 -0.1 1.3
vn 0.24523 0.966248 0.0789069
vt 0 0
v -0.645833 -0.104167 0.479167
vn 0.29369 0.901961 0.316562
vt 0 0
v 0.5 1.2 -0.8
vn 0.425808 -0.342687 0.837408
vt 0 0
v 1.15417 1.09583 -0.795833
vn -0.341691 -0.513356 0.787218
vt 0 0
v 0.7125 0.5875 -1.2
vn 0.291843 0.105928 0.950582
vt 0 0
v 1.31667 0.535417 -1.04896
vn -0.56352 0.306014 0.767333
vt 0 0
v 0.4 -0.1 -0.4
vn -0.132354 0.968307 0.211813
vt 0 0
v 0.754167 0.0125 -0.395833
vn -0.327738 0.942506 0.0653423
vt 0 0
v 1.6 1 -0.4
vn -0.788991 -0.29351 0.539764
vt 0 0
v 2.0875 1.15417 0.545833
vn -0.940459 -0.115705 0.319607
vt 0 0
v 1.675 0.475 -0.4875
vn -0.785236 0.431278 0.444302
vt 0 0
v 2.08229 0.447917 0.314583
vn -0.873838 0.391245 0.288678
vt 0 0
v 1 0.1 -0.2
vn -0.332688 0.883088 0.330869
vt 0 0
v 1.39583 -0.0458333 0.0708333
vn -0.453078 0.740919 0.495742
vt 0 0
v 2.1 1.3 1.5
vn -0.895754 0.210309 -0.391656
vt 0 0
v -0.304167 1.15417 1.94583
vn -0.165068 0.264219 -0.950232
vt 0 0
v 2.025 0.4375 1.1375
vn -0.673409 0.572264 -0.468011
vt 0 0
v -0.404167 0.477083 1.82396
vn -0.156554 0.468107 -0.869693
vt 0 0
v 1.5 -0.2 0.4
vn -0.295542 0.953501 -0.059074
vt 0 0
v -0.00416666 -0.1625 0.945833
vn -0.0577832 0.927896 -0.368335
vt 0 0
v 0.046875 -0.009375 0.034375
vn -0.133279 0.990712 -0.0269359
vt 0 0
f 1/1/1 3/3/3 2/2/2
f 3/3/3 4/4/4 2/2/2
f 2/2/2 4/4/4 7/7/7
f 4/4/4 9/9/9 7/7/7
f 7/7/7 9/9/9 8/8/8
f 9/9/9 10/10/10 8/8/8
f 8/8/8 10/10/10 13/13/13
f 10/10/10 15/15/15 13/13/13
f 13/13/13 15/15/15 14/14/14
f 15/15/15 16/16/16 14/14/14
f 14/14/14 16/16/16 19/19/19
f 16/16/16 21/21/21 19/19/19
f 19/19/19 21/21/21 20/20/20
f 21/21/21 22/22/22 20/20/20
f 20/20/20 22/22/22 1/1/1
f 22/22/22 3/3/3 1/1/1
f 3/3/3 5/5/5 4/4/4
f 5/5/5 6/6/6 4/4/4
f 4/4/4 6/6/6 9/9/9
f 6/6/6 11/11/11 9/9/9
f 9/9/9 11/11/11 10/10/10
f 11/11/11 12/12/12 10/10/10
f 10/10/10 12/12/12 15/15/15
f 12/12/12 17/17/17 15/15/15
f 15/15/15 17/17/17 16/16/16
f 17/17/17 18/18/18 16/16/16
f 16/16/16 18/18/18 21/21/21
f 18/18/18 23/23/23 21/21/21
f 21/21/21 23/23/23 22/22/22
f 23/23/23 24/24/24 22/22/22
f 22/22/22 24/24/24 3/3/3
f 24/24/24 5/5/5 3/3/3
f 5/5/5 25/25/25 6/6/6
f 6/6/6 25/25/25 11/11/11
f 11/11/11 25/25/25 12/12/12
f 12/12/12 25/25/25 17/17/17
f 17/17/17 25/25/25 18/18/18
f 18/18/18 25/25/25 23/23/23
f 23/23/23 25/25/25 24/24/24
f 24/24/24 25/25/25 5/5/5
